<?xml version="1.0" standalone="no"?>
<!DOCTYPE svg PUBLIC "-//W3C//DTD SVG 20010904//EN"
 "http://www.w3.org/TR/2001/REC-SVG-20010904/DTD/svg10.dtd">
<svg version="1.0" xmlns="http://www.w3.org/2000/svg"
 width="260.000000pt" height="260.000000pt" viewBox="0 0 260.000000 260.000000"
 preserveAspectRatio="xMidYMid meet">
<metadata>
Created by potrace 1.14, written by Peter Selinger 2001-2017
</metadata>
<g transform="translate(0.000000,260.000000) scale(0.100000,-0.100000)"
fill="#000000" stroke="none">
<path d="M0 1300 l0 -1300 1300 0 1300 0 0 1300 0 1300 -1300 0 -1300 0 0
-1300z m926 728 c143 -139 259 -257 259 -262 0 -6 -108 -99 -240 -208 l-240
-198 -6 -73 c-4 -39 -12 -286 -19 -547 -7 -261 -16 -479 -20 -484 -5 -4 -12
-6 -17 -3 -4 3 -1 253 8 556 14 474 18 553 32 568 8 10 117 101 241 203 l226
185 -255 248 c-226 221 -267 267 -235 267 4 0 124 -114 266 -252z m346 -20
c161 -149 294 -274 295 -277 1 -3 -123 -89 -276 -191 l-279 -185 -6 -105 c-3
-58 -11 -303 -17 -545 -6 -242 -15 -444 -19 -449 -5 -4 -12 -6 -17 -3 -6 4 17
969 26 1104 1 7 123 95 273 194 l272 182 -40 36 c-192 171 -533 495 -528 502
3 5 9 9 14 9 5 0 141 -122 302 -272z m325 2 c169 -149 309 -274 311 -278 1 -4
-130 -106 -292 -226 l-294 -218 -6 -107 c-3 -58 -11 -288 -17 -511 -6 -223
-15 -409 -20 -414 -5 -5 -12 -7 -16 -3 -7 8 13 830 24 971 l6 79 281 209 c155
116 282 213 284 217 1 4 -133 126 -298 270 -266 234 -313 281 -280 281 5 0
147 -122 317 -270z m451 -1389 l-3 -170 -229 162 c-126 89 -231 167 -232 172
-2 6 102 83 229 172 l232 163 3 -164 c1 -91 1 -241 0 -335z"/>
<path d="M1835 935 c-99 -70 -186 -132 -193 -139 -11 -11 23 -38 180 -149
l193 -136 3 140 c1 77 1 201 0 275 l-3 136 -180 -127z"/>
</g>
</svg>
